<svg width="52" height="11" xmlns="http://www.w3.org/2000/svg"><path d="M7.039 7.989c0 .893-.324 1.593-.972 2.102-.648.508-1.541.762-2.68.762-1.14 0-2.073-.176-2.8-.529V8.772c.46.215.947.384 1.462.508.52.124 1.002.185 1.447.185.653 0 1.133-.123 1.44-.37.313-.248.47-.58.47-.996 0-.376-.143-.694-.428-.955-.285-.261-.873-.57-1.764-.927-.92-.371-1.567-.795-1.944-1.271C.893 4.47.705 3.897.705 3.229c0-.838.299-1.498.896-1.978.597-.481 1.4-.722 2.405-.722.965 0 1.926.211 2.881.632l-.523 1.34c-.896-.376-1.696-.564-2.399-.564-.533 0-.937.117-1.213.35-.276.23-.413.534-.413.914 0 .261.055.486.165.673.11.184.292.358.544.522.253.165.708.383 1.365.653.74.307 1.282.593 1.627.859.344.265.597.565.758.9.16.334.241.727.241 1.18zm5.431 2.727h-1.647V2.082H7.859V.674h7.575v1.408H12.47v8.634zm6.162-5.372h1.144c.767 0 1.323-.142 1.668-.426.345-.283.517-.705.517-1.263 0-.568-.186-.976-.558-1.223-.373-.247-.933-.37-1.682-.37h-1.09v3.282zm0 1.36v4.012h-1.647V.674h2.846c1.3 0 2.263.242 2.888.728.625.485.937 1.218.937 2.198 0 1.25-.652 2.14-1.957 2.672l2.846 4.444h-1.874l-2.413-4.012h-1.626zm13.633 4.012l-1.006-2.79h-3.853l-.986 2.79h-1.737L28.453.632h1.792l3.77 10.084h-1.75zm-1.44-4.204l-.945-2.734a20.85 20.85 0 01-.538-1.73 15.297 15.297 0 01-.544 1.847l-.91 2.617h2.936zm12.715-.914c0 1.658-.461 2.926-1.385 3.806-.923.874-2.254 1.312-3.99 1.312h-2.82V.674h3.116c1.604 0 2.851.43 3.742 1.291.892.86 1.337 2.072 1.337 3.633zm-1.736.055c0-2.404-1.128-3.606-3.385-3.606h-1.426v7.288h1.171c2.427 0 3.64-1.227 3.64-3.682zm9.607 5.063h-5.7V.674h5.7V2.06H47.36v2.734h3.797v1.374H47.36V9.32h4.052v1.395z"/></svg>